<svg width="75" height="75" viewBox="0 0 75 75" fill="none" xmlns="http://www.w3.org/2000/svg">
<path fill-rule="evenodd" clip-rule="evenodd" d="M71.9719 12.4033C72.1902 12.621 72.3633 12.8796 72.4815 13.1644C72.5997 13.4491 72.6605 13.7544 72.6605 14.0627C72.6605 14.3709 72.5997 14.6762 72.4815 14.9609C72.3633 15.2457 72.1902 15.5043 71.9719 15.722L39.1594 48.5345C38.9417 48.7528 38.6831 48.926 38.3983 49.0441C38.1136 49.1623 37.8083 49.2231 37.5 49.2231C37.1917 49.2231 36.8865 49.1623 36.6018 49.0441C36.317 48.926 36.0584 48.7528 35.8407 48.5345L21.7782 34.472C21.5602 34.2541 21.3874 33.9954 21.2695 33.7107C21.1515 33.426 21.0908 33.1208 21.0908 32.8127C21.0908 32.5045 21.1515 32.1993 21.2695 31.9146C21.3874 31.6299 21.5602 31.3712 21.7782 31.1533C21.9961 30.9354 22.2548 30.7625 22.5395 30.6446C22.8242 30.5266 23.1294 30.466 23.4375 30.466C23.7457 30.466 24.0509 30.5266 24.3356 30.6446C24.6203 30.7625 24.879 30.9354 25.0969 31.1533L37.5 43.5611L68.6532 12.4033C68.8709 12.185 69.1295 12.0119 69.4143 11.8937C69.699 11.7755 70.0042 11.7147 70.3125 11.7147C70.6208 11.7147 70.9261 11.7755 71.2108 11.8937C71.4956 12.0119 71.7542 12.185 71.9719 12.4033Z" fill="black"/>
<path fill-rule="evenodd" clip-rule="evenodd" d="M37.5 11.7187C32.401 11.7187 27.4165 13.2307 23.1767 16.0636C18.937 18.8965 15.6326 22.923 13.6813 27.6339C11.73 32.3448 11.2194 37.5285 12.2142 42.5296C13.2089 47.5307 15.6644 52.1245 19.2699 55.73C22.8755 59.3356 27.4693 61.791 32.4704 62.7858C37.4714 63.7806 42.6552 63.27 47.3661 61.3187C52.077 59.3674 56.1035 56.0629 58.9364 51.8232C61.7693 47.5835 63.2813 42.599 63.2813 37.4999C63.2813 36.8783 63.5282 36.2822 63.9678 35.8426C64.4073 35.4031 65.0034 35.1562 65.625 35.1562C66.2466 35.1562 66.8428 35.4031 67.2823 35.8426C67.7219 36.2822 67.9688 36.8783 67.9688 37.4999C67.9679 44.207 65.754 50.7263 61.6704 56.0469C57.5869 61.3675 51.8618 65.192 45.3831 66.9273C38.9044 68.6626 32.0342 68.2117 25.8379 65.6445C19.6416 63.0774 14.4655 58.5374 11.1124 52.7287C7.7592 46.92 6.41638 40.1672 7.29215 33.5176C8.16791 26.868 11.2133 20.6931 15.9561 15.9507C20.6988 11.2082 26.8739 8.1632 33.5236 7.28787C40.1732 6.41253 46.9259 7.75578 52.7344 11.1093C53.0145 11.2558 53.2621 11.4575 53.4622 11.7022C53.6623 11.9468 53.8109 12.2295 53.899 12.533C53.987 12.8366 54.0128 13.1549 53.9747 13.4687C53.9366 13.7825 53.8354 14.0853 53.6772 14.359C53.519 14.6326 53.3071 14.8715 53.0542 15.0611C52.8013 15.2508 52.5127 15.3873 52.2056 15.4625C51.8986 15.5377 51.5796 15.55 51.2676 15.4987C50.9557 15.4474 50.6574 15.3336 50.3907 15.164C46.473 12.8985 42.0256 11.7098 37.5 11.7187Z" fill="black"/>
</svg>
