<svg width="24" height="24" viewBox="0 0 24 24" fill="none" xmlns="http://www.w3.org/2000/svg">
<g id="Chevron right">
<path id="Vector" fill-rule="evenodd" clip-rule="evenodd" d="M6.969 2.46912C7.03867 2.39928 7.12143 2.34386 7.21255 2.30605C7.30366 2.26824 7.40135 2.24878 7.5 2.24878C7.59865 2.24878 7.69633 2.26824 7.78745 2.30605C7.87857 2.34386 7.96133 2.39928 8.031 2.46912L17.031 11.4691C17.1008 11.5388 17.1563 11.6216 17.1941 11.7127C17.2319 11.8038 17.2513 11.9015 17.2513 12.0001C17.2513 12.0988 17.2319 12.1965 17.1941 12.2876C17.1563 12.3787 17.1008 12.4615 17.031 12.5311L8.031 21.5311C7.89017 21.6719 7.69916 21.7511 7.5 21.7511C7.30083 21.7511 7.10983 21.6719 6.969 21.5311C6.82817 21.3903 6.74905 21.1993 6.74905 21.0001C6.74905 20.801 6.82817 20.6099 6.969 20.4691L15.4395 12.0001L6.969 3.53112C6.89915 3.46145 6.84374 3.37869 6.80593 3.28757C6.76812 3.19645 6.74866 3.09877 6.74866 3.00012C6.74866 2.90147 6.76812 2.80379 6.80593 2.71267C6.84374 2.62155 6.89915 2.53879 6.969 2.46912Z" fill="black"/>
</g>
</svg>
