<svg width="24" height="24" viewBox="0 0 24 24" fill="none" xmlns="http://www.w3.org/2000/svg">
<g id="Chevron left">
<path id="Vector" fill-rule="evenodd" clip-rule="evenodd" d="M17.031 2.46912C17.1008 2.53879 17.1563 2.62155 17.1941 2.71267C17.2319 2.80379 17.2513 2.90147 17.2513 3.00012C17.2513 3.09877 17.2319 3.19645 17.1941 3.28757C17.1563 3.37869 17.1008 3.46145 17.031 3.53112L8.5605 12.0001L17.031 20.4691C17.1718 20.6099 17.2509 20.801 17.2509 21.0001C17.2509 21.1993 17.1718 21.3903 17.031 21.5311C16.8902 21.6719 16.6992 21.7511 16.5 21.7511C16.3008 21.7511 16.1098 21.6719 15.969 21.5311L6.969 12.5311C6.89915 12.4615 6.84374 12.3787 6.80593 12.2876C6.76812 12.1965 6.74866 12.0988 6.74866 12.0001C6.74866 11.9015 6.76812 11.8038 6.80593 11.7127C6.84374 11.6216 6.89915 11.5388 6.969 11.4691L15.969 2.46912C16.0387 2.39928 16.1214 2.34386 16.2125 2.30605C16.3037 2.26824 16.4013 2.24878 16.5 2.24878C16.5986 2.24878 16.6963 2.26824 16.7874 2.30605C16.8786 2.34386 16.9613 2.39928 17.031 2.46912Z" fill="black"/>
</g>
</svg>
