<svg width="21" height="21" viewBox="0 0 21 21" fill="none" xmlns="http://www.w3.org/2000/svg">
<path fill-rule="evenodd" clip-rule="evenodd" d="M5.12993 8.12993C5.17101 8.08874 5.21981 8.05607 5.27354 8.03377C5.32727 8.01148 5.38487 8 5.44305 8C5.50122 8 5.55882 8.01148 5.61255 8.03377C5.66628 8.05607 5.71508 8.08874 5.75616 8.12993L10.7501 13.1248L15.7441 8.12993C15.7852 8.08881 15.834 8.05619 15.8877 8.03394C15.9415 8.01169 15.999 8.00023 16.0572 8.00023C16.1153 8.00023 16.1729 8.01169 16.2266 8.03394C16.2804 8.05619 16.3292 8.08881 16.3703 8.12993C16.4114 8.17105 16.444 8.21986 16.4663 8.27359C16.4885 8.32731 16.5 8.3849 16.5 8.44305C16.5 8.5012 16.4885 8.55878 16.4663 8.6125C16.444 8.66623 16.4114 8.71504 16.3703 8.75616L11.0632 14.0632C11.0222 14.1044 10.9733 14.1371 10.9196 14.1594C10.8659 14.1817 10.8083 14.1932 10.7501 14.1932C10.6919 14.1932 10.6343 14.1817 10.5806 14.1594C10.5269 14.1371 10.4781 14.1044 10.437 14.0632L5.12993 8.75616C5.08874 8.71508 5.05607 8.66628 5.03377 8.61255C5.01148 8.55882 5 8.50122 5 8.44305C5 8.38487 5.01148 8.32727 5.03377 8.27354C5.05607 8.21981 5.08874 8.17101 5.12993 8.12993Z" fill="white"/>
</svg>
