<svg width="35" height="35" viewBox="0 0 35 35" fill="none" xmlns="http://www.w3.org/2000/svg">
<g id="Facebook" clip-path="url(#clip0_0_2472)">
<path id="Vector" d="M34.4956 17.3841C34.4956 7.93633 26.8838 0.277832 17.4956 0.277832C8.10308 0.279957 0.491333 7.93633 0.491333 17.3862C0.491333 25.9223 6.70908 32.9986 14.8351 34.2821V22.329H10.5213V17.3862H14.8393V13.6143C14.8393 9.32821 17.3787 6.96096 21.2611 6.96096C23.1226 6.96096 25.067 7.29458 25.067 7.29458V11.5021H22.9228C20.8127 11.5021 20.154 12.8217 20.154 14.1753V17.3841H24.8672L24.115 22.3268H20.1518V34.28C28.2778 32.9965 34.4956 25.9202 34.4956 17.3841Z" fill="#454545"/>
</g>
<defs>
<clipPath id="clip0_0_2472">
<rect width="34" height="34" fill="white" transform="translate(0.5 0.282227)"/>
</clipPath>
</defs>
</svg>
