<svg width="256" height="256" viewBox="0 0 256 256" fill="none" xmlns="http://www.w3.org/2000/svg">
<rect width="256" height="256" fill="#98002E"/>
<g filter="url(#filter0_d_0_2234)">
<path d="M78.324 146.056C78.324 144.616 77.292 143.752 75.66 143.752H72.348V148.264H75.732C77.364 148.264 78.324 147.472 78.324 146.056ZM77.916 139.072C77.916 137.728 77.004 136.96 75.42 136.96H72.348V141.16H75.42C77.004 141.16 77.916 140.44 77.916 139.072ZM81.732 146.464C81.732 149.128 79.692 151 76.212 151H68.988V134.248H75.9C79.404 134.248 81.348 136.072 81.348 138.568C81.348 140.608 80.124 141.88 78.492 142.408C80.388 142.744 81.732 144.496 81.732 146.464ZM83.5459 144.304C83.5459 140.152 86.2339 137.488 89.6179 137.488C91.7539 137.488 93.2179 138.496 94.0099 139.6V137.704H97.3939V151H94.0099V149.056C93.2179 150.208 91.7059 151.216 89.5939 151.216C86.2339 151.216 83.5459 148.456 83.5459 144.304ZM94.0099 144.352C94.0099 141.832 92.3299 140.44 90.4819 140.44C88.6819 140.44 86.9779 141.784 86.9779 144.304C86.9779 146.824 88.6819 148.264 90.4819 148.264C92.3299 148.264 94.0099 146.872 94.0099 144.352ZM104.036 144.376V151H100.676V137.704H104.036V139.768C104.876 138.4 106.268 137.512 108.116 137.512V141.04H107.228C105.236 141.04 104.036 141.808 104.036 144.376ZM116.091 140.248C114.483 140.248 113.211 141.28 112.947 143.104H119.259C119.211 141.352 117.819 140.248 116.091 140.248ZM122.403 146.824C121.683 149.272 119.475 151.216 116.187 151.216C112.323 151.216 109.515 148.528 109.515 144.352C109.515 140.152 112.251 137.488 116.187 137.488C120.027 137.488 122.739 140.104 122.739 144.064C122.739 144.496 122.715 144.928 122.643 145.36H112.923C113.091 147.328 114.435 148.432 116.115 148.432C117.555 148.432 118.347 147.712 118.779 146.824H122.403ZM130.91 134.248H134.27V148.336H139.79V151H130.91V134.248ZM141.062 144.304C141.062 140.152 143.75 137.488 147.134 137.488C149.27 137.488 150.734 138.496 151.526 139.6V137.704H154.91V151H151.526V149.056C150.734 150.208 149.222 151.216 147.11 151.216C143.75 151.216 141.062 148.456 141.062 144.304ZM151.526 144.352C151.526 141.832 149.846 140.44 147.998 140.44C146.198 140.44 144.494 141.784 144.494 144.304C144.494 146.824 146.198 148.264 147.998 148.264C149.846 148.264 151.526 146.872 151.526 144.352ZM167.503 151V143.656C167.503 141.52 166.327 140.368 164.551 140.368C162.727 140.368 161.551 141.52 161.551 143.656V151H158.191V137.704H161.551V139.36C162.415 138.232 163.855 137.512 165.559 137.512C168.655 137.512 170.863 139.528 170.863 143.2V151H167.503ZM173.194 144.304C173.194 140.152 175.882 137.488 179.29 137.488C181.042 137.488 182.722 138.304 183.634 139.552V133.24H187.042V151H183.634V149.032C182.842 150.256 181.354 151.216 179.266 151.216C175.882 151.216 173.194 148.456 173.194 144.304ZM183.658 144.352C183.658 141.832 181.978 140.44 180.13 140.44C178.33 140.44 176.626 141.784 176.626 144.304C176.626 146.824 178.33 148.264 180.13 148.264C181.978 148.264 183.658 146.872 183.658 144.352ZM53.2229 170.248C58.5749 170.248 62.0549 173.56 62.0549 178.648C62.0549 183.712 58.5749 187 53.2229 187H47.3669V170.248H53.2229ZM50.7269 184.144H53.1029C56.6309 184.144 58.6229 182.128 58.6229 178.648C58.6229 175.168 56.6309 173.08 53.1029 173.08H50.7269V184.144ZM70.2821 176.248C68.6741 176.248 67.4021 177.28 67.1381 179.104H73.4501C73.4021 177.352 72.0101 176.248 70.2821 176.248ZM76.5941 182.824C75.8741 185.272 73.6661 187.216 70.3781 187.216C66.5141 187.216 63.7061 184.528 63.7061 180.352C63.7061 176.152 66.4421 173.488 70.3781 173.488C74.2181 173.488 76.9301 176.104 76.9301 180.064C76.9301 180.496 76.9061 180.928 76.8341 181.36H67.1141C67.2821 183.328 68.6261 184.432 70.3061 184.432C71.7461 184.432 72.5381 183.712 72.9701 182.824H76.5941ZM77.9666 173.704H81.5666L84.9266 183.904L88.2866 173.704H91.8626L86.9426 187H82.8626L77.9666 173.704ZM99.4618 176.248C97.8538 176.248 96.5818 177.28 96.3178 179.104H102.63C102.582 177.352 101.19 176.248 99.4618 176.248ZM105.774 182.824C105.054 185.272 102.846 187.216 99.5578 187.216C95.6938 187.216 92.8857 184.528 92.8857 180.352C92.8857 176.152 95.6217 173.488 99.5578 173.488C103.398 173.488 106.11 176.104 106.11 180.064C106.11 180.496 106.086 180.928 106.014 181.36H96.2938C96.4618 183.328 97.8058 184.432 99.4858 184.432C100.926 184.432 101.718 183.712 102.15 182.824H105.774ZM108.562 187V169.24H111.922V187H108.562ZM128.082 180.352C128.082 184.528 125.01 187.216 121.146 187.216C117.306 187.216 114.402 184.528 114.402 180.352C114.402 176.152 117.402 173.488 121.242 173.488C125.082 173.488 128.082 176.152 128.082 180.352ZM117.81 180.352C117.81 182.992 119.346 184.288 121.146 184.288C122.922 184.288 124.626 182.992 124.626 180.352C124.626 177.688 122.97 176.416 121.194 176.416C119.418 176.416 117.81 177.688 117.81 180.352ZM133.907 175.624C134.699 174.496 136.235 173.488 138.299 173.488C141.707 173.488 144.371 176.152 144.371 180.304C144.371 184.456 141.707 187.216 138.299 187.216C136.211 187.216 134.723 186.184 133.907 185.104V193.336H130.547V173.704H133.907V175.624ZM140.939 180.304C140.939 177.784 139.235 176.44 137.411 176.44C135.611 176.44 133.907 177.832 133.907 180.352C133.907 182.872 135.611 184.264 137.411 184.264C139.235 184.264 140.939 182.824 140.939 180.304ZM165.412 187V179.656C165.412 177.544 164.236 176.44 162.46 176.44C160.66 176.44 159.484 177.544 159.484 179.656V187H156.124V179.656C156.124 177.544 154.948 176.44 153.172 176.44C151.348 176.44 150.172 177.544 150.172 179.656V187H146.812V173.704H150.172V175.312C151.012 174.208 152.428 173.512 154.084 173.512C156.148 173.512 157.852 174.4 158.764 176.056C159.628 174.544 161.38 173.512 163.324 173.512C166.516 173.512 168.772 175.528 168.772 179.2V187H165.412ZM177.673 176.248C176.065 176.248 174.793 177.28 174.529 179.104H180.841C180.793 177.352 179.401 176.248 177.673 176.248ZM183.985 182.824C183.265 185.272 181.057 187.216 177.769 187.216C173.905 187.216 171.097 184.528 171.097 180.352C171.097 176.152 173.833 173.488 177.769 173.488C181.609 173.488 184.321 176.104 184.321 180.064C184.321 180.496 184.297 180.928 184.225 181.36H174.505C174.673 183.328 176.017 184.432 177.697 184.432C179.137 184.432 179.929 183.712 180.361 182.824H183.985ZM196.085 187V179.656C196.085 177.52 194.909 176.368 193.133 176.368C191.309 176.368 190.133 177.52 190.133 179.656V187H186.773V173.704H190.133V175.36C190.997 174.232 192.437 173.512 194.141 173.512C197.237 173.512 199.445 175.528 199.445 179.2V187H196.085ZM203.168 182.872V176.464H201.584V173.704H203.168V170.416H206.552V173.704H209.528V176.464H206.552V182.896C206.552 183.784 206.912 184.168 207.968 184.168H209.528V187H207.416C204.872 187 203.168 185.92 203.168 182.872Z" fill="white"/>
</g>
<g filter="url(#filter1_d_0_2234)">
<path fill-rule="evenodd" clip-rule="evenodd" d="M133.902 209.777C134.029 209.648 134.181 209.547 134.348 209.478C134.515 209.408 134.694 209.373 134.875 209.373C135.056 209.373 135.235 209.408 135.402 209.478C135.569 209.547 135.721 209.648 135.849 209.777L144.099 218.027C144.227 218.154 144.328 218.306 144.397 218.473C144.467 218.64 144.502 218.819 144.502 219C144.502 219.181 144.467 219.36 144.397 219.527C144.328 219.694 144.227 219.846 144.099 219.974L135.849 228.224C135.59 228.482 135.24 228.627 134.875 228.627C134.51 228.627 134.16 228.482 133.902 228.224C133.643 227.965 133.498 227.615 133.498 227.25C133.498 226.885 133.643 226.535 133.902 226.277L141.181 219L133.902 211.724C133.773 211.596 133.672 211.444 133.603 211.277C133.533 211.11 133.498 210.931 133.498 210.75C133.498 210.569 133.533 210.39 133.603 210.223C133.672 210.056 133.773 209.904 133.902 209.777Z" fill="white"/>
<path fill-rule="evenodd" clip-rule="evenodd" d="M111.5 219C111.5 218.635 111.645 218.286 111.903 218.028C112.161 217.77 112.51 217.625 112.875 217.625H141.75C142.115 217.625 142.464 217.77 142.722 218.028C142.98 218.286 143.125 218.635 143.125 219C143.125 219.365 142.98 219.714 142.722 219.972C142.464 220.23 142.115 220.375 141.75 220.375H112.875C112.51 220.375 112.161 220.23 111.903 219.972C111.645 219.714 111.5 219.365 111.5 219Z" fill="white"/>
</g>
<defs>
<filter id="filter0_d_0_2234" x="47.3669" y="133.24" width="162.161" height="61.0959" filterUnits="userSpaceOnUse" color-interpolation-filters="sRGB">
<feFlood flood-opacity="0" result="BackgroundImageFix"/>
<feColorMatrix in="SourceAlpha" type="matrix" values="0 0 0 0 0 0 0 0 0 0 0 0 0 0 0 0 0 0 127 0" result="hardAlpha"/>
<feOffset dy="1"/>
<feColorMatrix type="matrix" values="0 0 0 0 0 0 0 0 0 0 0 0 0 0 0 0 0 0 0.16 0"/>
<feBlend mode="normal" in2="BackgroundImageFix" result="effect1_dropShadow_0_2234"/>
<feBlend mode="normal" in="SourceGraphic" in2="effect1_dropShadow_0_2234" result="shape"/>
</filter>
<filter id="filter1_d_0_2234" x="106" y="197" width="44" height="45" filterUnits="userSpaceOnUse" color-interpolation-filters="sRGB">
<feFlood flood-opacity="0" result="BackgroundImageFix"/>
<feColorMatrix in="SourceAlpha" type="matrix" values="0 0 0 0 0 0 0 0 0 0 0 0 0 0 0 0 0 0 127 0" result="hardAlpha"/>
<feOffset dy="1"/>
<feColorMatrix type="matrix" values="0 0 0 0 0 0 0 0 0 0 0 0 0 0 0 0 0 0 0.16 0"/>
<feBlend mode="normal" in2="BackgroundImageFix" result="effect1_dropShadow_0_2234"/>
<feBlend mode="normal" in="SourceGraphic" in2="effect1_dropShadow_0_2234" result="shape"/>
</filter>
</defs>
</svg>
