<svg width="35" height="35" viewBox="0 0 35 35" fill="none" xmlns="http://www.w3.org/2000/svg">
<g id="Instagram" clip-path="url(#clip0_0_2474)">
<path id="Vector" d="M17.5 0.282227C12.8866 0.282227 12.3065 0.303477 10.4939 0.384227C8.68125 0.469227 7.44662 0.753977 6.365 1.17473C5.23045 1.60147 4.20279 2.27086 3.35388 3.1361C2.48916 3.98546 1.81985 5.01299 1.3925 6.14723C0.97175 7.22673 0.684875 8.46348 0.602 10.2697C0.52125 12.0866 0.5 12.6646 0.5 17.2844C0.5 21.8999 0.52125 22.4779 0.602 24.2905C0.687 26.101 0.97175 27.3356 1.3925 28.4172C1.82812 29.535 2.40825 30.4827 3.35388 31.4284C4.29738 32.374 5.24513 32.9562 6.36287 33.3897C7.44663 33.8105 8.67913 34.0974 10.4896 34.1802C12.3044 34.261 12.8824 34.2822 17.5 34.2822C22.1176 34.2822 22.6935 34.261 24.5083 34.1802C26.3166 34.0952 27.5555 33.8105 28.6371 33.3897C29.7709 32.9628 30.7979 32.2934 31.6461 31.4284C32.5917 30.4827 33.1719 29.535 33.6075 28.4172C34.0261 27.3356 34.313 26.101 34.398 24.2905C34.4787 22.4779 34.5 21.8999 34.5 17.2822C34.5 12.6646 34.4787 12.0866 34.398 10.2719C34.313 8.46348 34.0261 7.22673 33.6075 6.14723C33.1802 5.01296 32.5109 3.98541 31.6461 3.1361C30.7975 2.27054 29.7697 1.6011 28.635 1.17473C27.5513 0.753977 26.3145 0.467102 24.5061 0.384227C22.6914 0.303477 22.1155 0.282227 17.4958 0.282227H17.5021H17.5ZM15.9764 3.34648H17.5021C22.0411 3.34648 22.5787 3.36135 24.3701 3.44423C26.0276 3.5186 26.9286 3.79698 27.5279 4.0286C28.3205 4.33673 28.8879 4.70648 29.4829 5.30148C30.0779 5.89648 30.4455 6.46173 30.7536 7.25648C30.9874 7.8536 31.2636 8.7546 31.338 10.4121C31.4209 12.2035 31.4379 12.7411 31.4379 17.278C31.4379 21.8149 31.4209 22.3546 31.338 24.146C31.2636 25.8035 30.9853 26.7024 30.7536 27.3016C30.4811 28.0397 30.0461 28.7072 29.4807 29.2545C28.8857 29.8495 28.3205 30.2171 27.5258 30.5252C26.9308 30.759 26.0297 31.0352 24.3701 31.1117C22.5787 31.1925 22.0411 31.2116 17.5021 31.2116C12.9631 31.2116 12.4234 31.1925 10.632 31.1117C8.9745 31.0352 8.07562 30.759 7.47638 30.5252C6.73794 30.2531 6.06989 29.8188 5.52137 29.2545C4.9556 28.7063 4.51991 28.0382 4.24638 27.2995C4.01475 26.7024 3.73638 25.8014 3.662 24.1439C3.58125 22.3525 3.56425 21.8149 3.56425 17.2737C3.56425 12.7347 3.58125 12.1992 3.662 10.4079C3.7385 8.75035 4.01475 7.84935 4.2485 7.2501C4.55662 6.45748 4.92637 5.8901 5.52137 5.2951C6.11637 4.7001 6.68162 4.33248 7.47638 4.02435C8.07562 3.7906 8.9745 3.51435 10.632 3.43785C12.2003 3.3656 12.808 3.34435 15.9764 3.34223V3.34648ZM26.5759 6.16848C26.308 6.16848 26.0427 6.22124 25.7952 6.32376C25.5477 6.42628 25.3228 6.57655 25.1334 6.76598C24.9439 6.95541 24.7937 7.1803 24.6912 7.4278C24.5886 7.67531 24.5359 7.94058 24.5359 8.20848C24.5359 8.47637 24.5886 8.74165 24.6912 8.98915C24.7937 9.23665 24.9439 9.46154 25.1334 9.65097C25.3228 9.84041 25.5477 9.99067 25.7952 10.0932C26.0427 10.1957 26.308 10.2485 26.5759 10.2485C27.1169 10.2485 27.6358 10.0335 28.0184 9.65097C28.4009 9.2684 28.6159 8.74952 28.6159 8.20848C28.6159 7.66744 28.4009 7.14855 28.0184 6.76598C27.6358 6.3834 27.1169 6.16848 26.5759 6.16848ZM17.5021 8.55273C16.3442 8.53466 15.1941 8.74713 14.1191 9.17778C13.044 9.60842 12.0653 10.2486 11.2401 11.0611C10.4148 11.8736 9.7594 12.8422 9.31204 13.9104C8.86468 14.9786 8.63429 16.1252 8.63429 17.2833C8.63429 18.4414 8.86468 19.588 9.31204 20.6562C9.7594 21.7244 10.4148 22.693 11.2401 23.5055C12.0653 24.318 13.044 24.9582 14.1191 25.3888C15.1941 25.8194 16.3442 26.0319 17.5021 26.0139C19.794 25.9781 21.98 25.0425 23.5881 23.4091C25.1962 21.7757 26.0975 19.5755 26.0975 17.2833C26.0975 14.9911 25.1962 12.7909 23.5881 11.1574C21.98 9.52404 19.794 8.58848 17.5021 8.55273ZM17.5021 11.6149C19.0052 11.6149 20.4467 12.2119 21.5096 13.2748C22.5724 14.3376 23.1695 15.7791 23.1695 17.2822C23.1695 18.7853 22.5724 20.2268 21.5096 21.2897C20.4467 22.3525 19.0052 22.9496 17.5021 22.9496C15.999 22.9496 14.5575 22.3525 13.4947 21.2897C12.4318 20.2268 11.8348 18.7853 11.8348 17.2822C11.8348 15.7791 12.4318 14.3376 13.4947 13.2748C14.5575 12.2119 15.999 11.6149 17.5021 11.6149Z" fill="#454545"/>
</g>
<defs>
<clipPath id="clip0_0_2474">
<rect width="34" height="34" fill="white" transform="translate(0.5 0.282227)"/>
</clipPath>
</defs>
</svg>
