<svg width="612" height="81" viewBox="0 0 612 81" fill="none" xmlns="http://www.w3.org/2000/svg">
<g clip-path="url(#clip0_0_2269)">
<path d="M13.6609 17.1358H13.8933L36.7435 78.4364H46.2423L69.3913 17.1358H69.6238V78.4364H83.1081V2.12608H61.7525L42.1239 56.3536H41.7918L21.964 2.12608H0.741211V78.4364H13.6609V17.1358Z" fill="#98002E"/>
<path d="M115.855 2.12608H102.272V78.4364H115.855V2.12608Z" fill="#98002E"/>
<path d="M148.636 40.1816H148.968L182.48 78.4364H201.544L163.515 37.3922L199.185 2.12608H180.852L148.968 35.1341H148.636V2.12608H135.052V78.4364H148.636V40.1816Z" fill="#98002E"/>
<path d="M264.182 66.3822H225.257V44.8307H260.296V33.4073H225.257V13.9811H262.223V2.12608H211.673V78.4364H264.182V66.3822Z" fill="#98002E"/>
<path d="M322.703 40.1816H323.035L356.546 78.4364H375.643L337.582 37.3922L373.252 2.12608H354.952L323.035 35.1341H322.703V2.12608H309.119V78.4364H322.703V40.1816Z" fill="#98002E"/>
<path d="M390.124 69.1052C393.744 72.6584 398.062 75.4146 403.043 77.407C408.025 79.3662 413.472 80.3625 419.384 80.3625C425.296 80.3625 430.842 79.3662 435.891 77.407C440.906 75.4478 445.256 72.6584 448.943 69.1052C452.596 65.552 455.453 61.3015 457.512 56.3868C459.571 51.4721 460.601 46.0261 460.601 40.0488C460.601 34.0715 459.571 28.4262 457.512 23.5116C455.453 18.5969 452.596 14.4128 448.943 10.9592C445.29 7.50565 440.939 4.84907 435.891 2.98946C430.842 1.12986 425.362 0.20005 419.384 0.20005C413.406 0.20005 408.059 1.12986 403.043 2.98946C398.062 4.84907 393.744 7.50565 390.124 10.9592C386.504 14.4128 383.647 18.5969 381.621 23.5116C379.562 28.4262 378.566 33.9387 378.566 40.0488C378.566 46.1589 379.595 51.4389 381.621 56.3868C383.681 61.3015 386.504 65.552 390.124 69.1052ZM395.205 29.0572C396.467 25.67 398.228 22.7478 400.553 20.224C402.844 17.7003 405.601 15.7411 408.789 14.2799C411.978 12.852 415.565 12.1215 419.517 12.1215C423.469 12.1215 427.056 12.852 430.311 14.2799C433.533 15.7079 436.322 17.7003 438.614 20.224C440.906 22.7478 442.699 25.67 443.961 29.0572C445.223 32.4443 445.854 36.0971 445.854 40.0488C445.854 44.0005 445.223 47.8857 443.961 51.3061C442.699 54.7264 440.906 57.6819 438.581 60.2056C436.256 62.7294 433.466 64.6886 430.211 66.0833C426.99 67.478 423.436 68.1754 419.55 68.1754C415.664 68.1754 412.144 67.478 408.922 66.0833C405.734 64.6886 402.944 62.7294 400.619 60.2056C398.294 57.6819 396.501 54.7264 395.239 51.3061C393.976 47.8857 393.345 44.1333 393.345 40.0488C393.345 35.9643 393.976 32.4443 395.239 29.0572H395.205Z" fill="#98002E"/>
<path d="M528.587 66.3822H489.662V44.8307H524.701V33.4073H489.662V13.9811H526.66V2.12608H476.111V78.4364H528.587V66.3822Z" fill="#98002E"/>
<path d="M557.78 19.4935H558.013L594.214 78.4364H611.485V2.12608H597.901V59.2758H597.668L562.231 2.12608H544.229V78.4364H557.78V19.4935Z" fill="#98002E"/>
</g>
<defs>
<clipPath id="clip0_0_2269">
<rect width="611.182" height="81" fill="white" transform="translate(0.409058)"/>
</clipPath>
</defs>
</svg>
