<svg width="447" height="86" viewBox="0 0 447 86" fill="none" xmlns="http://www.w3.org/2000/svg">
<g clip-path="url(#clip0_0_2208)">
<path d="M351.385 30.5552L296.461 54.7601L351.697 43.8634L446.522 69.944L351.385 30.5552Z" fill="#231F20"/>
<path d="M408.75 48.2399L351.176 0.5L279.518 52.4378H0.478149V54.7601H281.945L350.908 22.725L408.75 48.2399Z" fill="#98002E"/>
<path d="M50.8012 71.8642C51.7243 71.6409 52.5878 71.2539 53.3471 70.7329C54.1064 70.2119 54.7467 69.5122 55.238 68.6786C55.7293 67.8301 55.9675 66.7583 55.9675 65.4781C55.9675 64.1085 55.7144 62.9623 55.1933 62.0989C54.6871 61.2206 54.0171 60.5359 53.1983 60.0297C52.3943 59.5385 51.4861 59.1961 50.4588 59.0175C49.4612 58.8388 48.4488 58.7495 47.4811 58.7495H39.9773V85.5148H41.2428V72.2513H47.0642L54.9551 85.4106L55.0147 85.5148H56.4588L48.4637 72.2066C49.223 72.1768 49.9972 72.0726 50.7863 71.8791L50.8012 71.8642ZM41.2577 71.0901V59.9106H47.0493C48.0171 59.9106 48.9848 60 49.9228 60.1637C50.8459 60.3274 51.6647 60.6252 52.3794 61.042C53.0791 61.4588 53.6449 62.0245 54.0618 62.7539C54.4787 63.4684 54.702 64.3914 54.702 65.4781C54.702 67.2495 54.0916 68.6488 52.8707 69.6164C51.6499 70.5989 49.8186 71.0901 47.4513 71.0901H41.2428H41.2577Z" fill="#231F20"/>
<path d="M78.1959 72.2364H91.8784V71.0455H78.1959V59.9404H92.7271V58.7495H76.9304V85.4999H93.3226V84.3239H78.1959V72.2364Z" fill="#231F20"/>
<path d="M123.278 58.7495H121.938L110.34 85.5148H111.725L114.956 77.9676H129.933L133.06 85.5148H134.43L123.338 58.8984L123.278 58.7644V58.7495ZM115.432 76.8064L122.564 60.0595L129.487 76.8064H115.447H115.432Z" fill="#231F20"/>
<path d="M154.619 58.7495H153.353V85.4999H167.706V84.3239H154.619V58.7495Z" fill="#231F20"/>
<path d="M179.884 59.9404H188.847V85.4999H190.113V59.9404H199.076V58.7495H179.884V59.9404Z" fill="#231F20"/>
<path d="M223.969 72.5192L215.646 58.8537L215.587 58.7495H214.098L223.299 73.8292V85.4999H224.564V73.8292L233.78 58.7495H232.321L223.969 72.5192Z" fill="#231F20"/>
<path d="M6.41869 19.9414H6.52291L16.7662 47.4213H21.0243L31.4016 19.9414H31.5058V47.4213H37.5505V13.2129H27.9772L19.1781 37.522H19.0292L10.1408 13.2129H0.627075V47.4213H6.41869V19.9414Z" fill="#231F20"/>
<path d="M52.2305 13.2129H46.1411V47.4213H52.2305V13.2129Z" fill="#231F20"/>
<path d="M66.9254 30.2724H67.0743L82.0968 47.4213H90.6428L73.5955 29.022L89.5857 13.2129H81.3673L67.0743 28.0097H66.9254V13.2129H60.8361V47.4213H66.9254V30.2724Z" fill="#231F20"/>
<path d="M118.722 42.0176H101.273V32.3565H116.98V27.2357H101.273V18.5273H117.844V13.2129H95.1837V47.4213H118.722V42.0176Z" fill="#231F20"/>
<path d="M144.956 30.2724H145.105L160.127 47.4213H168.688L151.626 29.022L167.616 13.2129H159.413L145.105 28.0097H144.956V13.2129H138.866V47.4213H144.956V30.2724Z" fill="#231F20"/>
<path d="M175.179 43.2382C176.802 44.831 178.738 46.0665 180.971 46.9597C183.204 47.838 185.646 48.2846 188.296 48.2846C190.946 48.2846 193.433 47.838 195.696 46.9597C197.944 46.0814 199.894 44.831 201.547 43.2382C203.185 41.6453 204.465 39.7399 205.388 37.5368C206.311 35.3336 206.773 32.8923 206.773 30.2128C206.773 27.5333 206.311 25.0026 205.388 22.7995C204.465 20.5963 203.185 18.7206 201.547 17.1725C199.909 15.6243 197.959 14.4334 195.696 13.5998C193.433 12.7662 190.976 12.3494 188.296 12.3494C185.616 12.3494 183.219 12.7662 180.971 13.5998C178.738 14.4334 176.802 15.6243 175.179 17.1725C173.557 18.7206 172.276 20.5963 171.368 22.7995C170.445 25.0026 169.998 27.4737 169.998 30.2128C169.998 32.9518 170.46 35.3187 171.368 37.5368C172.291 39.7399 173.557 41.6453 175.179 43.2382ZM177.457 25.2854C178.023 23.7671 178.812 22.4571 179.854 21.3257C180.882 20.1944 182.118 19.3161 183.547 18.6611C184.976 18.021 186.584 17.6935 188.356 17.6935C190.128 17.6935 191.735 18.021 193.195 18.6611C194.639 19.3012 195.889 20.1944 196.917 21.3257C197.944 22.4571 198.748 23.7671 199.314 25.2854C199.879 26.8038 200.162 28.4413 200.162 30.2128C200.162 31.9842 199.879 33.7259 199.314 35.2592C198.748 36.7924 197.944 38.1173 196.902 39.2487C195.86 40.38 194.609 41.2583 193.15 41.8835C191.706 42.5087 190.113 42.8213 188.371 42.8213C186.629 42.8213 185.051 42.5087 183.606 41.8835C182.177 41.2583 180.926 40.38 179.884 39.2487C178.842 38.1173 178.038 36.7924 177.472 35.2592C176.907 33.7259 176.624 32.0438 176.624 30.2128C176.624 28.3818 176.907 26.8038 177.472 25.2854H177.457Z" fill="#231F20"/>
<path d="M237.249 42.0176H219.8V32.3565H235.508V27.2357H219.8V18.5273H236.386V13.2129H213.726V47.4213H237.249V42.0176Z" fill="#231F20"/>
<path d="M250.336 20.9984H250.441L266.669 47.4213H274.411V13.2129H268.322V38.832H268.218L252.332 13.2129H244.262V47.4213H250.336V20.9984Z" fill="#231F20"/>
</g>
<defs>
<clipPath id="clip0_0_2208">
<rect width="446.044" height="85" fill="white" transform="translate(0.478149 0.5)"/>
</clipPath>
</defs>
</svg>
