<svg width="500" height="96" viewBox="0 0 500 96" fill="none" xmlns="http://www.w3.org/2000/svg">
<g clip-path="url(#clip0_0_2462)">
<path d="M393.354 33.6909L331.787 60.8238L393.705 48.609L500 77.8444L393.354 33.6909Z" fill="#231F20"/>
<path d="M457.659 53.5148L393.121 0L312.794 58.2205H0V60.8237H315.515L392.82 24.9135L457.659 53.5148Z" fill="#98002E"/>
<path d="M56.4105 79.997C57.4452 79.7467 58.4132 79.3129 59.2644 78.7288C60.1155 78.1448 60.8332 77.3605 61.3839 76.426C61.9347 75.4749 62.2017 74.2734 62.2017 72.8384C62.2017 71.3032 61.918 70.0183 61.3339 69.0504C60.7664 68.0659 60.0154 67.2983 59.0975 66.731C58.1962 66.1803 57.1782 65.7965 56.0266 65.5963C54.9084 65.396 53.7735 65.2959 52.6887 65.2959H44.2772V95.2989H45.6958V80.4309H52.2214L61.0668 95.1821L61.1336 95.2989H62.7525L53.7902 80.3808C54.6414 80.3475 55.5092 80.2307 56.3938 80.0137L56.4105 79.997ZM45.7125 79.1293V66.5975H52.2047C53.2895 66.5975 54.3744 66.6976 55.4258 66.8812C56.4605 67.0647 57.3785 67.3984 58.1796 67.8657C58.964 68.3329 59.5982 68.967 60.0655 69.7847C60.5328 70.5856 60.7831 71.6202 60.7831 72.8384C60.7831 74.8241 60.0988 76.3927 58.7303 77.4773C57.3618 78.5787 55.309 79.1293 52.6553 79.1293H45.6958H45.7125Z" fill="#231F20"/>
<path d="M87.119 80.4142H102.457V79.0793H87.119V66.6308H103.408V65.2959H85.7004V95.2822H104.076V93.964H87.119V80.4142Z" fill="#231F20"/>
<path d="M137.655 65.2959H136.153L123.152 95.2989H124.704L128.325 86.8387H145.115L148.62 95.2989H150.155L137.722 65.4628L137.655 65.3126V65.2959ZM128.859 85.5371L136.854 66.7643L144.614 85.5371H128.876H128.859Z" fill="#231F20"/>
<path d="M172.786 65.2959H171.368V95.2822H187.456V93.964H172.786V65.2959Z" fill="#231F20"/>
<path d="M201.108 66.6308H211.155V95.2822H212.574V66.6308H222.621V65.2959H201.108V66.6308Z" fill="#231F20"/>
<path d="M250.526 80.7313L241.196 65.4127L241.13 65.2959H239.461L249.775 82.1997V95.2822H251.193V82.1997L261.524 65.2959H259.888L250.526 80.7313Z" fill="#231F20"/>
<path d="M6.65908 21.793H6.7759L18.2583 52.597H23.0315L34.664 21.793H34.7808V52.597H41.5568V14.2505H30.8254L20.962 41.5002H20.7951L10.8314 14.2505H0.16687V52.597H6.65908V21.793Z" fill="#231F20"/>
<path d="M58.0126 14.2505H51.1866V52.597H58.0126V14.2505Z" fill="#231F20"/>
<path d="M74.4852 33.3737H74.6521L91.4917 52.597H101.072L81.9621 31.972L99.8866 14.2505H90.674L74.6521 30.8373H74.4852V14.2505H67.6592V52.597H74.4852V33.3737Z" fill="#231F20"/>
<path d="M132.548 46.5396H112.988V35.7098H130.595V29.9695H112.988V20.2077H131.563V14.2505H106.162V52.597H132.548V46.5396Z" fill="#231F20"/>
<path d="M161.955 33.3737H162.122L178.961 52.597H188.558L169.432 31.972L187.356 14.2505H178.16L162.122 30.8373H161.955V14.2505H155.129V52.597H161.955V33.3737Z" fill="#231F20"/>
<path d="M195.834 47.908C197.653 49.6935 199.823 51.0785 202.327 52.0797C204.83 53.0643 207.567 53.5649 210.538 53.5649C213.508 53.5649 216.296 53.0643 218.832 52.0797C221.352 51.0952 223.539 49.6935 225.391 47.908C227.227 46.1225 228.663 43.9866 229.697 41.5169C230.732 39.0473 231.249 36.3106 231.249 33.307C231.249 30.3033 230.732 27.4666 229.697 24.9969C228.663 22.5272 227.227 20.4247 225.391 18.6893C223.556 16.9538 221.369 15.6189 218.832 14.6844C216.296 13.7499 213.542 13.2827 210.538 13.2827C207.534 13.2827 204.847 13.7499 202.327 14.6844C199.823 15.6189 197.653 16.9538 195.834 18.6893C194.015 20.4247 192.58 22.5272 191.562 24.9969C190.527 27.4666 190.026 30.2366 190.026 33.307C190.026 36.3774 190.544 39.0306 191.562 41.5169C192.597 43.9866 194.015 46.1225 195.834 47.908ZM198.388 27.7836C199.022 26.0816 199.907 24.6131 201.075 23.3449C202.226 22.0767 203.612 21.0922 205.214 20.358C206.816 19.6404 208.618 19.2733 210.604 19.2733C212.591 19.2733 214.393 19.6404 216.029 20.358C217.647 21.0755 219.049 22.0767 220.201 23.3449C221.353 24.6131 222.254 26.0816 222.888 27.7836C223.522 29.4857 223.839 31.3212 223.839 33.307C223.839 35.2927 223.522 37.2451 222.888 38.9638C222.254 40.6826 221.352 42.1677 220.184 43.4359C219.016 44.7041 217.614 45.6886 215.979 46.3895C214.36 47.0903 212.574 47.4408 210.621 47.4408C208.669 47.4408 206.899 47.0903 205.281 46.3895C203.678 45.6886 202.276 44.7041 201.108 43.4359C199.94 42.1677 199.039 40.6826 198.404 38.9638C197.77 37.2451 197.453 35.3595 197.453 33.307C197.453 31.2545 197.77 29.4857 198.404 27.7836H198.388Z" fill="#231F20"/>
<path d="M265.413 46.5396H245.853V35.7098H263.46V29.9695H245.853V20.2077H264.445V14.2505H239.043V52.597H265.413V46.5396Z" fill="#231F20"/>
<path d="M280.083 22.9777H280.2L298.391 52.597H307.07V14.2505H300.244V42.9686H300.127L282.319 14.2505H273.273V52.597H280.083V22.9777Z" fill="#231F20"/>
</g>
<defs>
<clipPath id="clip0_0_2462">
<rect width="500" height="95.2821" fill="white"/>
</clipPath>
</defs>
</svg>
