<svg width="35" height="35" viewBox="0 0 35 35" fill="none" xmlns="http://www.w3.org/2000/svg">
<g id="Pinterest" clip-path="url(#clip0_0_2476)">
<path id="Vector" d="M17.5 0.28223C13.5362 0.279716 9.69613 1.66237 6.64377 4.19111C3.59141 6.71986 1.51862 10.2357 0.783825 14.1308C0.0490257 18.0259 0.698402 22.0552 2.61967 25.5223C4.54094 28.9893 7.61332 31.6759 11.3056 33.1177C11.1568 31.7726 11.0208 29.705 11.363 28.2366C11.6732 26.9085 13.3562 19.7855 13.3562 19.7855C13.3562 19.7855 12.8483 18.7676 12.8483 17.2631C12.8483 14.898 14.219 13.1342 15.9253 13.1342C17.3746 13.1342 18.0758 14.2222 18.0758 15.5291C18.0758 16.9869 17.1472 19.1671 16.667 21.188C16.2675 22.8795 17.517 24.2607 19.1851 24.2607C22.2068 24.2607 24.5295 21.0732 24.5295 16.4747C24.5295 12.4054 21.6033 9.55998 17.4277 9.55998C12.5912 9.55998 9.7522 13.1874 9.7522 16.9359C9.7522 18.3979 10.3153 19.964 11.0166 20.8161C11.077 20.8803 11.1197 20.9591 11.1405 21.0448C11.1614 21.1304 11.1597 21.2201 11.1356 21.3049C11.006 21.8404 10.7191 22.9964 10.6638 23.2322C10.5895 23.5425 10.4173 23.6084 10.0943 23.4596C7.96933 22.4715 6.64333 19.3669 6.64333 16.8721C6.64333 11.5107 10.5406 6.58711 17.8761 6.58711C23.773 6.58711 28.3566 10.7882 28.3566 16.4046C28.3566 22.2632 24.6612 26.9786 19.5357 26.9786C17.8123 26.9786 16.1931 26.084 15.6385 25.0257L14.5802 29.0675C14.1956 30.5444 13.1586 32.3952 12.4658 33.5236C14.8033 34.2463 17.2692 34.456 19.6951 34.1383C22.121 33.8206 24.4497 32.983 26.5222 31.6827C28.5947 30.3825 30.3622 28.6502 31.7038 26.6042C33.0454 24.5582 33.9296 22.2467 34.2959 19.8277C34.6622 17.4087 34.5021 14.9391 33.8265 12.5876C33.1508 10.2361 31.9756 8.05817 30.381 6.20256C28.7864 4.34695 26.8101 2.85739 24.587 1.83564C22.364 0.813884 19.9466 0.284016 17.5 0.28223Z" fill="#454545"/>
</g>
<defs>
<clipPath id="clip0_0_2476">
<rect width="34" height="34" fill="white" transform="translate(0.5 0.282227)"/>
</clipPath>
</defs>
</svg>
