<svg width="25" height="25" viewBox="0 0 25 25" fill="none" xmlns="http://www.w3.org/2000/svg">
<path fill-rule="evenodd" clip-rule="evenodd" d="M6.70024 9.62993C6.74132 9.58874 6.79013 9.55607 6.84386 9.53377C6.89759 9.51148 6.95519 9.5 7.01336 9.5C7.07153 9.5 7.12913 9.51148 7.18286 9.53377C7.23659 9.55607 7.28539 9.58874 7.32648 9.62993L12.3204 14.6248L17.3144 9.62993C17.3555 9.58881 17.4043 9.55619 17.458 9.53394C17.5118 9.51169 17.5693 9.50023 17.6275 9.50023C17.6856 9.50023 17.7432 9.51169 17.797 9.53394C17.8507 9.55619 17.8995 9.58881 17.9406 9.62993C17.9817 9.67105 18.0144 9.71986 18.0366 9.77359C18.0589 9.82731 18.0703 9.8849 18.0703 9.94305C18.0703 10.0012 18.0589 10.0588 18.0366 10.1125C18.0144 10.1662 17.9817 10.215 17.9406 10.2562L12.6335 15.5632C12.5925 15.6044 12.5437 15.6371 12.4899 15.6594C12.4362 15.6817 12.3786 15.6932 12.3204 15.6932C12.2623 15.6932 12.2047 15.6817 12.1509 15.6594C12.0972 15.6371 12.0484 15.6044 12.0073 15.5632L6.70024 10.2562C6.65906 10.2151 6.62638 10.1663 6.60408 10.1125C6.58179 10.0588 6.57031 10.0012 6.57031 9.94305C6.57031 9.88487 6.58179 9.82727 6.60408 9.77354C6.62638 9.71981 6.65906 9.67101 6.70024 9.62993Z" fill="white"/>
</svg>
