<svg width="75" height="75" viewBox="0 0 75 75" fill="none" xmlns="http://www.w3.org/2000/svg">
<path fill-rule="evenodd" clip-rule="evenodd" d="M25.514 9.33281C21.2272 10.4852 16.9682 11.7387 12.7405 13.0922C12.3579 13.2103 12.0164 13.4339 11.7552 13.7374C11.494 14.0409 11.3238 14.4119 11.264 14.8078C8.76554 33.075 14.5312 46.4062 21.4077 55.1859C24.8577 59.5922 28.5937 62.8547 31.7062 64.9969C33.2671 66.0656 34.6405 66.8438 35.7233 67.3406C36.2671 67.5891 36.7077 67.7578 37.0452 67.8562C37.194 67.9041 37.346 67.9417 37.4999 67.9688C37.5327 67.9641 37.678 67.9453 37.9546 67.8609C38.2921 67.7578 38.7327 67.5891 39.2765 67.3406C40.3546 66.8438 41.7374 66.0656 43.2937 64.9969C47.1966 62.2585 50.6678 58.9516 53.5921 55.1859C60.4687 46.4062 66.2343 33.075 63.7359 14.8078C63.6761 14.4119 63.5058 14.0409 63.2446 13.7374C62.9834 13.4339 62.6419 13.2103 62.2593 13.0922C59.3249 12.1547 54.3749 10.6266 49.4859 9.33281C44.489 8.01563 39.8905 7.03125 37.4999 7.03125C35.1093 7.03125 30.5155 8.01563 25.514 9.33281ZM24.314 4.80469C29.203 3.51094 34.3921 2.34375 37.4999 2.34375C40.603 2.34375 45.7968 3.51094 50.6858 4.80469C55.0466 5.97551 59.3791 7.2493 63.6796 8.625C66.1546 9.4125 68.0202 11.5453 68.3812 14.175C71.0671 33.8484 64.8374 48.4266 57.2859 58.0734C54.0678 62.2135 50.2472 65.8476 45.9515 68.8547C44.4578 69.901 42.8788 70.8198 41.2312 71.6016C39.9655 72.1828 38.6155 72.6562 37.4999 72.6562C36.3843 72.6562 35.0343 72.1828 33.7687 71.6016C32.1207 70.8205 30.5416 69.9016 29.0483 68.8547C24.7543 65.8472 20.9353 62.2131 17.7187 58.0734C10.1577 48.4266 3.93272 33.8484 6.61866 14.175C6.79824 12.9003 7.33513 11.7026 8.16718 10.7204C8.99923 9.73818 10.0924 9.01169 11.3202 8.625C15.6208 7.24933 19.9532 5.97554 24.314 4.80469Z" fill="black"/>
<path d="M37.5 10.5469C41.7609 10.5469 52.4438 13.7578 57.4406 15.3375C58.2459 15.5844 58.9635 16.0569 59.5085 16.6991C60.0535 17.3413 60.403 18.1262 60.5156 18.9609C64.3313 49.0734 41.1563 63.2672 37.5 63.2672V10.5469Z" fill="black"/>
</svg>
