<svg width="35" height="35" viewBox="0 0 35 35" fill="none" xmlns="http://www.w3.org/2000/svg">
<g id="Tiktok" clip-path="url(#clip0_0_2478)">
<path id="Vector" d="M19.625 0.282227H23.8325C24.1385 1.8016 24.98 3.71835 26.4569 5.62023C27.9019 7.48385 29.8186 8.78223 32.375 8.78223V13.0322C28.6499 13.0322 25.8513 11.3025 23.875 9.1456V23.6572C23.875 25.7587 23.2519 27.8129 22.0844 29.5602C20.9169 31.3074 19.2575 32.6693 17.316 33.4735C15.3746 34.2776 13.2382 34.4881 11.1772 34.0781C9.11612 33.6681 7.22293 32.6562 5.737 31.1702C4.25106 29.6843 3.23913 27.7911 2.82916 25.7301C2.41919 23.669 2.6296 21.5327 3.43379 19.5912C4.23797 17.6498 5.5998 15.9904 7.34707 14.8229C9.09435 13.6554 11.1486 13.0322 13.25 13.0322V17.2822C11.9892 17.2822 10.7566 17.6561 9.70825 18.3566C8.65988 19.0571 7.84278 20.0527 7.36027 21.2176C6.87777 22.3825 6.75152 23.6643 6.9975 24.9009C7.24348 26.1376 7.85064 27.2735 8.7422 28.165C9.63376 29.0566 10.7697 29.6638 12.0063 29.9097C13.2429 30.1557 14.5247 30.0295 15.6896 29.547C16.8545 29.0645 17.8501 28.2474 18.5506 27.199C19.2511 26.1506 19.625 24.9181 19.625 23.6572V0.282227Z" fill="#454545"/>
</g>
<defs>
<clipPath id="clip0_0_2478">
<rect width="34" height="34" fill="white" transform="translate(0.5 0.282227)"/>
</clipPath>
</defs>
</svg>
