<svg width="35" height="35" viewBox="0 0 35 35" fill="none" xmlns="http://www.w3.org/2000/svg">
<g id="Youtube" clip-path="url(#clip0_0_2480)">
<path id="Vector" d="M17.6084 4.53027H17.7975C19.5443 4.53665 28.3949 4.6004 30.7813 5.24215C31.5027 5.43801 32.1601 5.81977 32.6877 6.34929C33.2154 6.87881 33.5948 7.53754 33.7881 8.25965C34.0028 9.06715 34.1536 10.136 34.2556 11.2389L34.2769 11.4599L34.3236 12.0124L34.3406 12.2334C34.4788 14.1756 34.4958 15.9946 34.4979 16.392V16.5514C34.4958 16.9636 34.4766 18.9059 34.3236 20.9289L34.3066 21.152L34.2875 21.373C34.1813 22.5885 34.024 23.7955 33.7881 24.6838C33.5954 25.4062 33.2162 26.0652 32.6884 26.5948C32.1607 27.1244 31.503 27.506 30.7813 27.7013C28.3163 28.3643 18.9471 28.411 17.6488 28.4131H17.347C16.6904 28.4131 13.9746 28.4004 11.1271 28.3026L10.7659 28.2899L10.581 28.2814L10.2176 28.2665L9.85425 28.2516C7.4955 28.1475 5.24938 27.9796 4.2145 27.6991C3.49304 27.5041 2.83551 27.1228 2.30779 26.5936C1.78007 26.0644 1.40067 25.4058 1.20763 24.6838C0.97175 23.7976 0.8145 22.5885 0.70825 21.373L0.69125 21.1499L0.67425 20.9289C0.569376 19.489 0.511262 18.0461 0.5 16.6024L0.5 16.341C0.50425 15.8841 0.52125 14.3053 0.636 12.5628L0.650875 12.3439L0.65725 12.2334L0.67425 12.0124L0.721 11.4599L0.74225 11.2389C0.84425 10.136 0.995125 9.06502 1.20975 8.25965C1.40247 7.53725 1.78172 6.87821 2.30947 6.3486C2.83721 5.81899 3.49491 5.43742 4.21663 5.24215C5.2515 4.9659 7.49763 4.7959 9.85638 4.68965L10.2176 4.67477L10.5831 4.66202L10.7659 4.65565L11.1293 4.64077C13.1516 4.57569 15.1748 4.53957 17.1983 4.5324H17.6084V4.53027ZM14.1 11.3515V21.5898L22.9336 16.4728L14.1 11.3515Z" fill="#454545"/>
</g>
<defs>
<clipPath id="clip0_0_2480">
<rect width="34" height="34" fill="white" transform="translate(0.5 0.282227)"/>
</clipPath>
</defs>
</svg>
